<?xml version="1.0" encoding="UTF-8"?>
<svg id="Laag_2" data-name="Laag 2" xmlns="http://www.w3.org/2000/svg" viewBox="0 0 1684 2384">
  <defs>
    <style>
      .cls-1 {
        fill: #c58b8b;
      }

      .cls-2 {
        stroke-width: 3px;
      }

      .cls-2, .cls-3 {
        fill: none;
        stroke: #5f8f85;
        stroke-miterlimit: 10;
      }

      .cls-4 {
        fill: #5f8f85;
      }

      .cls-5 {
        fill: #264a45;
      }

      .cls-6 {
        fill: #eaf6f1;
      }

      .cls-3 {
        stroke-width: 6px;
      }
    </style>
  </defs>
  <path class="cls-4" d="M1078.99,116.81l-460.4,606.79,53.19,47.49-51.66,82.72,10.72,816.51-352.34,1.53,18.38,257.36h629.62l7.66-989.62,454.98-623.49-310.16-199.3ZM1096.34,292.47c-1.29,0-1.29-2,0-2s1.29,2,0,2Z"/>
  <path class="cls-6" d="M1091.02,178.32l-35.83,49.49-6.55-4.04-371.74,516.77,53.36,40.6-27.57,37.28,46.47,34.21,438.38-603.83-96.51-70.47ZM1096.34,292.47c-1.29,0-1.29-2,0-2s1.29,2,0,2Z"/>
  <line class="cls-2" x1="1034.04" y1="210.96" x2="1159.06" y2="301.11"/>
  <line class="cls-2" x1="985.19" y1="295.55" x2="1110.21" y2="385.7"/>
  <line class="cls-2" x1="915.33" y1="389.89" x2="1040.35" y2="480.04"/>
  <line class="cls-2" x1="860.17" y1="467.56" x2="985.19" y2="557.71"/>
  <line class="cls-2" x1="769.06" y1="575.76" x2="894.09" y2="665.9"/>
  <path class="cls-2" d="M725.4,780.57c.85.34,11.4,7.83,11.4,7.83l10.72-13.62,24.85,17.7,16.17-21.11,14.98,10.55"/>
  <polygon class="cls-6" points="668.13 966.7 669.66 1675.21 763.31 1675.21 763.31 966.7 668.13 966.7"/>
  <polygon class="cls-6" points="796.81 966.7 888.72 966.7 890.26 1675.21 796.81 1675.21 796.81 1643.04 842 1643.04 842 1626.79 796.81 1626.79 796.81 966.7"/>
  <path class="cls-6" d="M343.02,1889.13h448.85v-112.85h-118.47v39.83h-252.77s2.04-22.98.51-22.98-33.7-.51-33.7-.51l-1.53-35.74h-42.89v132.26Z"/>
  <polygon class="cls-6" points="646.68 1793.13 446.17 1793.13 446.17 1730.32 439.02 1730.32 439.02 1709.38 668.13 1709.38 668.13 1753.81 646.85 1753.81 646.68 1793.13"/>
  <rect class="cls-6" x="791.87" y="1753.89" width="96.02" height="128.17"/>
  <polygon class="cls-6" points="1181.17 320.57 803.53 835.3 909.51 910.87 1284.32 394.11 1181.17 320.57"/>
  <path class="cls-2" d="M1104.4,423.89c1.02.34,24.85,18.72,24.85,18.72l-3.4,12.6,74.8,54.25"/>
  <line class="cls-2" x1="1082.62" y1="453.51" x2="1186.56" y2="528.9"/>
  <line class="cls-2" x1="999.21" y1="566.87" x2="1103.93" y2="642.82"/>
  <polyline class="cls-2" points="912.4 683.98 942.02 705.43 943.72 699.98 1024.06 755.47"/>
  <line class="cls-2" x1="889.6" y1="717.68" x2="999.21" y2="795.64"/>
  <line class="cls-2" x1="859.3" y1="753.43" x2="974.7" y2="837.51"/>
  <line class="cls-2" x1="656.06" y1="1037.26" x2="913.43" y2="1037.26"/>
  <line class="cls-2" x1="790.36" y1="1085.77" x2="904.23" y2="1085.77"/>
  <line class="cls-2" x1="663.72" y1="1108.23" x2="770.45" y2="1108.23"/>
  <line class="cls-2" x1="663.72" y1="1155.21" x2="767.89" y2="1155.21"/>
  <line class="cls-2" x1="663.72" y1="1202.7" x2="918.02" y2="1202.7"/>
  <path class="cls-2" d="M790.87,1249.68h109.28"/>
  <line class="cls-2" x1="663.72" y1="1343.13" x2="767.89" y2="1343.13"/>
  <path class="cls-2" d="M658.62,1391.64c6.13.51,246.13-2.04,246.13-2.04"/>
  <path class="cls-2" d="M790.87,1414.62c2.04.51,109.28,0,109.28,0"/>
  <line class="cls-2" x1="661.17" y1="1438.62" x2="775.04" y2="1438.62"/>
  <line class="cls-2" x1="663.72" y1="1485.09" x2="767.89" y2="1485.09"/>
  <polyline class="cls-2" points="790.87 1494.79 843.53 1494.79 843.53 1462.11 894.02 1462.11"/>
  <line class="cls-2" x1="791.87" y1="1531.04" x2="896.57" y2="1531.04"/>
  <polyline class="cls-2" points="896.57 1578.53 824.57 1578.53 824.57 1556.06 735.72 1556.06 735.72 1578.53 658.62 1578.53"/>
  <line class="cls-2" x1="770.96" y1="1531.04" x2="656.06" y2="1531.04"/>
  <line class="cls-2" x1="896.57" y1="1626.02" x2="663.72" y2="1626.02"/>
  <line class="cls-2" x1="791.87" y1="1768.17" x2="791.87" y2="1919.83"/>
  <line class="cls-2" x1="671.4" y1="1809.53" x2="671.4" y2="1906.21"/>
  <line class="cls-2" x1="627.83" y1="1809.53" x2="627.83" y2="1901.11"/>
  <line class="cls-2" x1="580.17" y1="1810.89" x2="580.17" y2="1910.3"/>
  <line class="cls-2" x1="485.02" y1="1806.47" x2="485.02" y2="1912.68"/>
  <line class="cls-2" x1="439.02" y1="1802.89" x2="439.02" y2="1912.68"/>
  <path class="cls-3" d="M332.34,1793.13c1.53.57,104.17,0,104.17,0"/>
  <line class="cls-3" x1="604" y1="1698.72" x2="604" y2="1809.53"/>
  <polyline class="cls-2" points="532.51 1698.72 532.51 1806.47 532.51 1903.49"/>
  <polygon class="cls-6" points="668.13 917.87 668.13 960.09 763.31 960.09 763.31 925.02 743.32 925.36 742.98 919.57 668.13 917.87"/>
  <polygon class="cls-5" points="343.02 1709.38 436.51 1709.38 436.51 1733.53 442.04 1733.53 442.04 1774.38 422.13 1774.38 421.62 1751.26 343.02 1751.26 343.02 1709.38"/>
  <polygon class="cls-5" points="796.81 1676.85 796.81 1699.15 807.83 1699.15 807.83 1748.85 882.72 1748.85 882.72 1677.36 796.81 1676.85"/>
  <polygon class="cls-5" points="842 867.15 900.89 908.68 882.85 963.15 811.02 963.15 811.02 908.34 842 867.15"/>
  <polygon class="cls-5" points="1187.53 316.09 1222.67 269.23 1313.06 334.98 1278.43 379.91 1187.53 316.09"/>
  <polygon class="cls-1" points="703.87 824.26 749.06 856.43 728.64 881.19 728.13 915.15 672.47 915.15 672.47 869.7 703.87 824.26"/>
  <rect class="cls-1" x="674.34" y="1717.36" width="77.96" height="33.89"/>
</svg>