<?xml version="1.0" encoding="UTF-8"?>
<svg id="svg164" xmlns="http://www.w3.org/2000/svg" viewBox="0 0 1110.64 1812.41">
  <defs>
    <style>
      .cls-1 {
        fill: #c58b8b;
      }

      .cls-2, .cls-3, .cls-4, .cls-5, .cls-6, .cls-7, .cls-8, .cls-9, .cls-10 {
        isolation: isolate;
      }

      .cls-2, .cls-3, .cls-4, .cls-5, .cls-6, .cls-8, .cls-9, .cls-10 {
        font-family: FranklinGothic-Book, 'Franklin Gothic Book';
      }

      .cls-2, .cls-3, .cls-4, .cls-5, .cls-8, .cls-11, .cls-9, .cls-10 {
        fill: #264a45;
      }

      .cls-2, .cls-3, .cls-5, .cls-6, .cls-9, .cls-10 {
        font-size: 12px;
      }

      .cls-3 {
        letter-spacing: .06em;
      }

      .cls-4 {
        letter-spacing: .05em;
      }

      .cls-4, .cls-8 {
        font-size: 12px;
      }

      .cls-12 {
        fill: #5f8f85;
      }

      .cls-5 {
        letter-spacing: .04em;
      }

      .cls-6, .cls-13 {
        fill: #eaf6f1;
      }

      .cls-6, .cls-9, .cls-14 {
        letter-spacing: .05em;
      }

      .cls-8 {
        letter-spacing: .03em;
      }

      .cls-15 {
        letter-spacing: .04em;
      }

      .cls-10 {
        letter-spacing: .03em;
      }
    </style>
  </defs>
  <g id="Laag_2" data-name="Laag 2">
    <path id="hallway-path" class="cls-12" d="M800.49,0l-460.4,606.79,53.19,47.49-51.66,82.72,10.72,816.51-352.34,1.53,18.38,257.36h629.62l7.66-989.62,454.98-623.49L800.48,0h.01ZM817.84,175.67c-1.29,0-1.29-2,0-2s1.29,2,0,2Z"/>
    <g id="g5">
      <polygon id="polygon1" class="cls-13" points="645.04 279.86 591.17 354.76 693.17 428.31 747.38 353.65 645.04 279.86"/>
      <polygon id="polygon2" class="cls-13" points="610.31 542.45 691.41 430.74 589.42 357.19 508.8 469.26 610.31 542.45"/>
      <polygon id="M331-polygon" class="cls-13" points="875.2 177.59 909.03 130.99 812.52 60.52 778.33 107.74 875.2 177.59"/>
      <path id="path3" class="cls-13" d="M451.34,663.89c1.96,1.34,4.38,3.04,6.67,4.67l10.73-13.62,24.84,17.69,16.17-21.1,14.14,9.97,84.66-116.61-101.5-73.19-108.65,151.04,53.36,40.6-.42.56h0Z"/>
      <path id="path4" class="cls-13" d="M510.37,655.64l-16.18,21.11-24.87-17.71-10.72,13.62-1.16-.83c-2.74-1.94-5.69-4.02-7.89-5.52l-25.37,34.3,46.47,34.21,51.47-70.9-11.75-8.28h0Z"/>
      <polygon id="M328-polygon" class="cls-13" points="713.59 184.57 646.8 277.43 749.14 351.22 816.34 258.66 713.59 184.57"/>
      <path id="M330-path" class="cls-13" d="M774.31,108.54l-4.18-2.58-54.8,76.17,102.76,74.1,55.34-76.22-99.12-71.47h0ZM817.84,174.67c-1.29,0-1.29-2,0-2s1.29,2,0,2Z"/>
    </g>
    <rect id="rect5" class="cls-13" x="513.37" y="1636.09" width="96.02" height="128.17"/>
    <g id="g8">
      <path id="M329-path" class="cls-13" d="M851.67,323.63l.79.61-3.4,12.56,73.96,53.64,82.79-114.14-103.15-73.53-75.23,102.55c2.8,1.91,10.91,8.03,24.24,18.31h0Z"/>
      <polygon id="polygon6" class="cls-13" points="666.05 584.57 664.33 590.06 634.42 568.4 612.13 598.78 717.55 673.75 743.46 638.04 666.05 584.57"/>
      <polygon id="polygon7" class="cls-13" points="582.71 638.88 525.03 717.5 631.01 793.07 687.48 715.21 582.71 638.88"/>
      <polygon id="polygon8" class="cls-13" points="689.24 712.78 715.79 676.18 610.36 601.2 584.49 636.46 689.24 712.78"/>
      <g>
        <polygon class="cls-13" points="722.42 448.45 826.31 523.8 907.22 412.25 803.9 337.4 722.42 448.45"/>
        <path class="cls-13" d="M921.27,392.88l-75.64-54.86,3.41-12.63c-8.28-6.38-20.74-15.9-23.36-17.68l-20.01,27.27,103.32,74.84"/>
      </g>
      <path id="path8" class="cls-13" d="M824.55,526.23l-103.9-75.36-84.45,115.11,26.52,19.2,1.69-5.4,80.82,55.82"/>
    </g>
    <g id="g18">
      <polygon id="polygon9" class="cls-13" points="450.77 1458.1 450.77 1435.63 479.86 1435.63 479.86 1413.61 385.9 1413.61 385.99 1458.1 450.77 1458.1"/>
      <polygon id="polygon10" class="cls-13" points="479.86 1367.65 385.8 1367.65 385.89 1410.61 479.86 1410.61 479.86 1367.65"/>
      <polygon id="polygon11" class="cls-13" points="384.98 989.85 479.86 989.85 479.86 921.87 384.83 921.87 384.98 989.85"/>
      <path id="path11" class="cls-13" d="M385.59,1271.27c17.43-.04,54.54-.34,94.27-.7v-42.82h-94.36l.09,43.52h0Z"/>
      <polygon id="polygon12" class="cls-13" points="385.08 1036.83 479.86 1036.83 479.86 992.85 384.99 992.85 385.08 1036.83"/>
      <polygon id="polygon13" class="cls-13" points="385.79 1364.65 479.86 1364.65 479.86 1321.18 385.7 1321.18 385.79 1364.65"/>
      <polygon id="polygon14" class="cls-13" points="479.86 918.87 479.86 847.77 384.67 847.77 384.83 918.87 479.86 918.87"/>
      <polygon id="polygon15" class="cls-13" points="385.09 1039.83 385.19 1084.32 479.86 1084.32 479.86 1039.83 385.09 1039.83"/>
      <polygon id="polygon16" class="cls-13" points="479.86 1438.63 453.77 1438.63 453.77 1461.1 386 1461.1 386.1 1505.59 479.86 1505.59 479.86 1438.63"/>
      <polygon id="polygon17" class="cls-13" points="386.1 1508.59 386.21 1556.28 479.86 1556.28 479.86 1508.59 386.1 1508.59"/>
      <path id="path17" class="cls-13" d="M385.69,1318.18h94.17v-44.61c-39.64.36-76.68.66-94.26.7l.09,43.92h0Z"/>
      <polygon id="polygon18" class="cls-13" points="385.49 1224.74 479.86 1224.74 479.86 1087.32 385.19 1087.32 385.49 1224.74"/>
    </g>
    <g id="g22">
      <rect id="rect18" class="cls-13" x="255.6" y="1698.31" width="44.57" height="73.02"/>
      <rect id="rect19" class="cls-13" x="208.02" y="1698.31" width="44.57" height="73.02"/>
      <rect id="rect20" class="cls-13" x="162.02" y="1698.31" width="43" height="73.02"/>
      <polygon id="polygon20" class="cls-13" points="394.4 1771.33 511.87 1771.33 511.87 1658.48 394.9 1658.48 394.9 1698.31 394.4 1698.31 394.4 1771.33"/>
      <path id="path20" class="cls-13" d="M108.85,1672.54l-1.43-33.46h-42.89v33.47c10.11.06,26.55.04,44.33,0h-.01Z"/>
      <path id="path21" class="cls-13" d="M159.02,1698.31h-16.88s1.21-13.64,1.07-19.9c-26.25.13-44.83.18-57.99.18-9.38,0-15.99-.03-20.69-.07v92.8h94.5v-73.02h-.01Z"/>
      <rect id="rect21" class="cls-13" x="303.17" y="1698.31" width="44.66" height="73.02"/>
      <rect id="rect22" class="cls-13" x="350.83" y="1698.31" width="40.57" height="73.02"/>
    </g>
    <polygon id="polygon22" class="cls-13" points="389.63 800.07 389.63 842.29 484.81 842.29 484.81 807.22 464.82 807.56 464.48 801.77 389.63 800.07"/>
    <polygon id="polygon23" class="cls-11" points="64.52 1591.58 158.01 1591.58 158.01 1615.73 163.54 1615.73 163.54 1656.58 143.63 1656.58 143.12 1633.46 64.52 1633.46 64.52 1591.58"/>
    <polygon id="polygon24" class="cls-11" points="518.31 1559.05 518.31 1581.35 529.33 1581.35 529.33 1631.05 604.22 1631.05 604.22 1559.56 518.31 1559.05"/>
    <polygon id="polygon25" class="cls-11" points="563.5 749.35 622.39 790.88 604.35 845.35 532.52 845.35 532.52 790.54 563.5 749.35"/>
    <polygon id="M3S4-polygon" class="cls-11" points="909.03 198.29 944.17 151.43 1034.56 217.18 999.93 262.11 909.03 198.29"/>
    <polygon id="polygon27" class="cls-1" points="425.37 706.46 470.56 738.63 450.14 763.39 449.63 797.35 393.97 797.35 393.97 751.9 425.37 706.46"/>
    <rect id="rect27" class="cls-1" x="395.84" y="1599.56" width="77.96" height="33.89"/>
    <g id="g35">
      <polygon id="polygon28" class="cls-13" points="616.38 1461.87 549.4 1461.87 549.4 1439.4 523.14 1439.4 523.14 1506.36 616.48 1506.36 616.38 1461.87"/>
      <polygon id="polygon29" class="cls-13" points="571.36 1345.44 571.36 1378.13 523.14 1378.13 523.14 1411.38 616.27 1411.38 616.13 1345.44 571.36 1345.44"/>
      <path id="path29" class="cls-13" d="M523.14,1298.09v77.03h45.22v-32.68h47.76l-.1-44.44c-17.79.08-45.61.18-67.27.18-10.69,0-19.87-.03-25.61-.09h0Z"/>
      <path id="path30" class="cls-13" d="M523.14,1271.02c37.66-.36,73.4-.73,92.83-.93l-.3-137.07h-92.53v138h0Z"/>
      <polygon id="polygon30" class="cls-13" points="523.14 966.1 615.31 966.1 615.21 920.59 523.14 920.59 523.14 966.1"/>
      <polygon id="polygon31" class="cls-13" points="523.14 1414.38 523.14 1436.4 552.4 1436.4 552.4 1458.87 616.37 1458.87 616.28 1414.38 523.14 1414.38"/>
      <path id="path31" class="cls-13" d="M523.14,1295.11c16.48.16,64.51.01,92.88-.11l-.05-21.91c-19.55.2-55.24.57-92.83.93v21.09Z"/>
      <polygon id="polygon32" class="cls-13" points="615.2 917.59 615.05 848.54 523.14 848.54 523.14 917.59 615.2 917.59"/>
      <polygon id="polygon33" class="cls-13" points="568.33 1509.36 568.33 1524.88 523.14 1524.88 523.14 1557.05 616.58 1557.05 616.48 1509.36 568.33 1509.36"/>
      <polygon id="polygon34" class="cls-13" points="523.14 969.1 523.14 1083.04 615.56 1083.04 615.31 969.1 523.14 969.1"/>
      <polygon id="polygon35" class="cls-13" points="523.14 1130.02 615.66 1130.02 615.57 1086.04 523.14 1086.04 523.14 1130.02"/>
    </g>
    <g id="g37">
      <rect id="rect35" class="cls-13" x="255.6" y="1591.58" width="66.9" height="83.74"/>
      <polygon id="polygon36" class="cls-13" points="252.6 1675.33 252.6 1591.58 160.52 1591.58 160.52 1612.52 167.67 1612.52 167.67 1675.33 252.6 1675.33"/>
      <polygon id="polygon37" class="cls-13" points="328.5 1591.58 328.5 1675.33 368.18 1675.33 368.35 1636.01 389.63 1636.01 389.63 1591.58 328.5 1591.58"/>
    </g>
  </g>
  <g id="Laag_3" data-name="Laag 3">
    <g id="text37" class="cls-7">
      <text class="cls-9" transform="translate(896.12 305.36)"><tspan x="0" y="0">M329</tspan></text>
    </g>
    <g id="text40" class="cls-7">
      <text class="cls-9" transform="translate(852.31 363.44) rotate(36.05)"><tspan x="0" y="0">M3</tspan></text>
      <text class="cls-10" transform="translate(867.13 374.22) rotate(36.05)"><tspan x="0" y="0">2</tspan></text>
      <text class="cls-9" transform="translate(873.13 378.59) rotate(36.05)"><tspan x="0" y="0">7B</tspan></text>
    </g>
    <g id="text43" class="cls-7">
      <text class="cls-9" transform="translate(794.05 439.51)"><tspan x="0" y="0">M3</tspan></text>
      <text class="cls-10" transform="translate(812.38 439.51)"><tspan x="0" y="0">2</tspan></text>
      <text class="cls-9" transform="translate(819.8 439.51)"><tspan x="0" y="0">7A</tspan></text>
    </g>
    <g id="text44" class="cls-7">
      <text class="cls-9" transform="translate(556.49 1544.81)"><tspan x="0" y="0">M305</tspan></text>
    </g>
    <g id="text45" class="cls-7">
      <text class="cls-9" transform="translate(553.36 1489.82)"><tspan x="0" y="0">M306</tspan></text>
    </g>
    <g id="text46" class="cls-7">
      <text class="cls-9" transform="translate(568.98 1444.48)"><tspan x="0" y="0">M308</tspan></text>
    </g>
    <g id="text50" class="cls-7">
      <text class="cls-9" transform="translate(559.23 1399.14)"><tspan x="0" y="0">M</tspan></text>
      <text class="cls-10" transform="translate(569.92 1399.14)"><tspan x="0" y="0">3</tspan></text>
      <text class="cls-5" transform="translate(577.38 1399.14)"><tspan x="0" y="0">1</tspan></text>
      <text class="cls-9" transform="translate(584.92 1399.14)"><tspan x="0" y="0">1</tspan></text>
    </g>
    <g id="text53" class="cls-7">
      <text class="cls-9" transform="translate(420.7 1539.24)"><tspan x="0" y="0">M3</tspan></text>
      <text class="cls-10" transform="translate(439.03 1539.24)"><tspan x="0" y="0">0</tspan></text>
      <text class="cls-9" transform="translate(446.41 1539.24)"><tspan x="0" y="0">7</tspan></text>
    </g>
    <g id="text54" class="cls-7">
      <text class="cls-9" transform="translate(405.05 1437.97)"><tspan x="0" y="0">M309</tspan></text>
    </g>
    <g id="text58" class="cls-7">
      <text class="cls-9" transform="translate(417.98 1396.52)"><tspan x="0" y="0">M</tspan></text>
      <text class="cls-10" transform="translate(428.67 1396.52)"><tspan x="0" y="0">3</tspan></text>
      <text class="cls-5" transform="translate(436.13 1396.52)"><tspan x="0" y="0">1</tspan></text>
      <text class="cls-9" transform="translate(443.68 1396.52)"><tspan x="0" y="0">0</tspan></text>
    </g>
    <g id="text62" class="cls-7">
      <text class="cls-9" transform="translate(416.08 1350.03)"><tspan x="0" y="0">M</tspan></text>
      <text class="cls-10" transform="translate(426.77 1350.03)"><tspan x="0" y="0">3</tspan></text>
      <text class="cls-3" transform="translate(434.23 1350.03)"><tspan x="0" y="0">1</tspan></text>
      <text class="cls-9" transform="translate(441.96 1350.03)"><tspan x="0" y="0">2</tspan></text>
    </g>
    <g id="text66" class="cls-7">
      <text class="cls-9" transform="translate(548.77 1326.71)"><tspan x="0" y="0">M</tspan></text>
      <text class="cls-10" transform="translate(559.46 1326.71)"><tspan x="0" y="0">3</tspan></text>
      <text class="cls-3" transform="translate(566.92 1326.71)"><tspan x="0" y="0">1</tspan></text>
      <text class="cls-9" transform="translate(574.69 1326.71)"><tspan x="0" y="0">3</tspan></text>
    </g>
    <g id="text70" class="cls-7">
      <text class="cls-9" transform="translate(415.3 1304.28)"><tspan x="0" y="0">M</tspan></text>
      <text class="cls-10" transform="translate(425.99 1304.28)"><tspan x="0" y="0">3</tspan></text>
      <text class="cls-3" transform="translate(433.45 1304.28)"><tspan x="0" y="0">1</tspan></text>
      <text class="cls-9" transform="translate(441.2 1304.28)"><tspan x="0" y="0">4</tspan></text>
    </g>
    <g id="text74" class="cls-7">
      <text class="cls-9" transform="translate(414.71 1255.69)"><tspan x="0" y="0">M</tspan></text>
      <text class="cls-10" transform="translate(425.4 1255.69)"><tspan x="0" y="0">3</tspan></text>
      <text class="cls-3" transform="translate(432.86 1255.69)"><tspan x="0" y="0">1</tspan></text>
      <text class="cls-9" transform="translate(440.57 1255.69)"><tspan x="0" y="0">5</tspan></text>
    </g>
    <g id="text78" class="cls-7">
      <text class="cls-9" transform="translate(552.9 1203.09)"><tspan x="0" y="0">M</tspan></text>
      <text class="cls-10" transform="translate(563.59 1203.09)"><tspan x="0" y="0">3</tspan></text>
      <text class="cls-5" transform="translate(571.05 1203.09)"><tspan x="0" y="0">1</tspan></text>
      <text class="cls-9" transform="translate(578.61 1203.09)"><tspan x="0" y="0">6</tspan></text>
    </g>
    <g id="text82" class="cls-7">
      <text class="cls-9" transform="translate(415.12 1163.57)"><tspan x="0" y="0">M</tspan></text>
      <text class="cls-10" transform="translate(425.81 1163.57)"><tspan x="0" y="0">3</tspan></text>
      <text class="cls-2" transform="translate(433.27 1163.57)"><tspan x="0" y="0">1</tspan></text>
      <text class="cls-9" transform="translate(440.35 1163.57)"><tspan x="0" y="0">7</tspan></text>
    </g>
    <g id="text86" class="cls-7">
      <text class="cls-9" transform="translate(552.94 1117.02)"><tspan x="0" y="0">M</tspan></text>
      <text class="cls-10" transform="translate(563.63 1117.02)"><tspan x="0" y="0">3</tspan></text>
      <text class="cls-3" transform="translate(571.09 1117.02)"><tspan x="0" y="0">1</tspan></text>
      <text class="cls-9" transform="translate(578.87 1117.02)"><tspan x="0" y="0">8</tspan></text>
    </g>
    <g id="text89" class="cls-7">
      <text class="cls-9" transform="translate(553.46 1028.32)"><tspan x="0" y="0">M</tspan></text>
      <text class="cls-10" transform="translate(564.15 1028.32)"><tspan x="0" y="0">3</tspan></text>
      <text class="cls-2" transform="translate(571.61 1028.32)"><tspan class="cls-15" x="0" y="0">1</tspan><tspan class="cls-14" x="7.48" y="0">9</tspan></text>
    </g>
    <g id="text90" class="cls-7">
      <text class="cls-9" transform="translate(408.33 1068.71)"><tspan x="0" y="0">M320A</tspan></text>
    </g>
    <g id="text91" class="cls-7">
      <text class="cls-9" transform="translate(409.58 1020.78)"><tspan x="0" y="0">M320</tspan></text>
    </g>
    <g id="text92" class="cls-7">
      <text class="cls-9" transform="translate(407.91 963.36)"><tspan x="0" y="0">M320B</tspan></text>
    </g>
    <g id="text93" class="cls-7">
      <text class="cls-9" transform="translate(408.79 893.5)"><tspan x="0" y="0">M320C</tspan></text>
    </g>
    <g id="text94" class="cls-7">
      <text class="cls-9" transform="translate(414.52 827.38)"><tspan x="0" y="0">M3T1</tspan></text>
    </g>
    <g id="text97" class="cls-7">
      <text class="cls-9" transform="translate(546.9 892.97)"><tspan x="0" y="0">M3</tspan></text>
      <text class="cls-10" transform="translate(565.23 892.97)"><tspan x="0" y="0">2</tspan></text>
      <text class="cls-9" transform="translate(572.68 892.97)"><tspan x="0" y="0">1A</tspan></text>
    </g>
    <g id="text100" class="cls-7">
      <text class="cls-9" transform="translate(553.49 952.39)"><tspan x="0" y="0">M3</tspan></text>
      <text class="cls-10" transform="translate(571.82 952.39)"><tspan x="0" y="0">2</tspan></text>
      <text class="cls-9" transform="translate(579.27 952.39)"><tspan x="0" y="0">1</tspan></text>
    </g>
    <g id="text101" class="cls-7">
      <text class="cls-9" transform="translate(442.75 700.6)"><tspan x="0" y="0">M323A</tspan></text>
    </g>
    <g id="text102" class="cls-7">
      <text class="cls-9" transform="translate(490.92 575.38)"><tspan x="0" y="0">M323</tspan></text>
    </g>
    <g id="text105" class="cls-7">
      <text class="cls-9" transform="translate(579.8 456.64)"><tspan x="0" y="0">M</tspan></text>
      <text class="cls-10" transform="translate(590.49 456.64)"><tspan x="0" y="0">3</tspan></text>
      <text class="cls-9" transform="translate(597.91 456.64)"><tspan x="0" y="0">75C</tspan></text>
    </g>
    <g id="text106" class="cls-7">
      <text class="cls-9" transform="translate(650.2 362.57)"><tspan x="0" y="0">M326</tspan></text>
    </g>
    <g id="text107" class="cls-7">
      <text class="cls-9" transform="translate(714.9 276.06)"><tspan x="0" y="0">M328</tspan></text>
    </g>
    <g id="text108" class="cls-7">
      <text class="cls-9" transform="translate(778.37 190.09)"><tspan x="0" y="0">M330</tspan></text>
    </g>
    <g id="text109" class="cls-7">
      <text class="cls-9" transform="translate(718.68 549.16)"><tspan x="0" y="0">M325</tspan></text>
    </g>
    <g id="text112" class="cls-7">
      <text class="cls-9" transform="translate(658.16 625.49)"><tspan x="0" y="0">M3</tspan></text>
      <text class="cls-9" transform="translate(676.49 625.49)"><tspan x="0" y="0">2</tspan></text>
      <text class="cls-9" transform="translate(684.07 625.49)"><tspan x="0" y="0">4A</tspan></text>
    </g>
    <g id="text115" class="cls-7">
      <text class="cls-9" transform="translate(634.57 665.13)"><tspan x="0" y="0">M3</tspan></text>
      <text class="cls-9" transform="translate(652.9 665.13)"><tspan x="0" y="0">2</tspan></text>
      <text class="cls-9" transform="translate(660.48 665.13)"><tspan x="0" y="0">4</tspan></text>
    </g>
    <g id="text116" class="cls-7">
      <text class="cls-9" transform="translate(583.46 721.19)"><tspan x="0" y="0">M322</tspan></text>
    </g>
    <g id="text117" class="cls-7">
      <text class="cls-9" transform="translate(544.32 1708.14)"><tspan x="0" y="0">M303</tspan></text>
    </g>
    <g id="text118" class="cls-7">
      <text class="cls-9" transform="translate(433.98 1720.06)"><tspan x="0" y="0">M302</tspan></text>
    </g>
    <g id="text124" class="cls-7">
      <text class="cls-9" transform="translate(303.27 1736.73)"><tspan x="0" y="0">M3</tspan></text>
      <text class="cls-10" transform="translate(321.6 1736.73)"><tspan x="0" y="0">0</tspan></text>
      <text class="cls-9" transform="translate(328.98 1736.73)"><tspan x="0" y="0">1B</tspan></text>
    </g>
    <g id="text124-9" class="cls-7">
      <text class="cls-4" transform="translate(350.84 1737.12) scale(.91 1)"><tspan x="0" y="0">M3</tspan></text>
      <text class="cls-8" transform="translate(367.59 1737.12) scale(.91 1)"><tspan x="0" y="0">0</tspan></text>
      <text class="cls-4" transform="translate(374.33 1737.12) scale(.91 1)"><tspan x="0" y="0">1A</tspan></text>
    </g>
    <g id="text127" class="cls-7">
      <text class="cls-9" transform="translate(256.08 1736.16)"><tspan x="0" y="0">M3</tspan></text>
      <text class="cls-10" transform="translate(274.41 1736.16)"><tspan x="0" y="0">0</tspan></text>
      <text class="cls-9" transform="translate(281.79 1736.16)"><tspan x="0" y="0">1C</tspan></text>
    </g>
    <g id="text130" class="cls-7">
      <text class="cls-9" transform="translate(208.13 1736.2)"><tspan x="0" y="0">M3</tspan></text>
      <text class="cls-10" transform="translate(226.46 1736.2)"><tspan x="0" y="0">0</tspan></text>
      <text class="cls-9" transform="translate(233.84 1736.2)"><tspan x="0" y="0">1D</tspan></text>
    </g>
    <g id="text133" class="cls-7">
      <text class="cls-9" transform="translate(162.09 1736.14)"><tspan x="0" y="0">M3</tspan></text>
      <text class="cls-10" transform="translate(180.42 1736.14)"><tspan x="0" y="0">0</tspan></text>
      <text class="cls-9" transform="translate(187.8 1736.14)"><tspan x="0" y="0">1E</tspan></text>
    </g>
    <g id="text136" class="cls-7">
      <text class="cls-9" transform="translate(88.44 1735.78)"><tspan x="0" y="0">M3</tspan></text>
      <text class="cls-10" transform="translate(106.77 1735.78)"><tspan x="0" y="0">0</tspan></text>
      <text class="cls-9" transform="translate(114.15 1735.78)"><tspan x="0" y="0">1F</tspan></text>
    </g>
    <g id="text139" class="cls-7">
      <text class="cls-9" transform="translate(65.05 1661.94)"><tspan x="0" y="0">M3</tspan></text>
      <text class="cls-10" transform="translate(83.38 1661.94)"><tspan x="0" y="0">0</tspan></text>
      <text class="cls-9" transform="translate(90.76 1661.94)"><tspan x="0" y="0">1F</tspan></text>
    </g>
    <g id="text142" class="cls-7">
      <text class="cls-9" transform="translate(187.34 1636.37)"><tspan x="0" y="0">M3</tspan></text>
      <text class="cls-10" transform="translate(205.67 1636.37)"><tspan x="0" y="0">0</tspan></text>
      <text class="cls-9" transform="translate(213.05 1636.37)"><tspan x="0" y="0">1H</tspan></text>
    </g>
    <g id="text145" class="cls-7">
      <text class="cls-9" transform="translate(267.81 1637.03)"><tspan x="0" y="0">M3</tspan></text>
      <text class="cls-10" transform="translate(286.14 1637.03)"><tspan x="0" y="0">0</tspan></text>
      <text class="cls-9" transform="translate(293.52 1637.03)"><tspan x="0" y="0">1I</tspan></text>
    </g>
    <g id="text148" class="cls-7">
      <text class="cls-9" transform="translate(335.6 1625.29)"><tspan x="0" y="0">M3</tspan></text>
      <text class="cls-10" transform="translate(353.93 1625.29)"><tspan x="0" y="0">0</tspan></text>
      <text class="cls-9" transform="translate(361.31 1625.29)"><tspan x="0" y="0">1J</tspan></text>
    </g>
    <g id="text151" class="cls-7">
      <text class="cls-9" transform="translate(829.05 124.88)"><tspan x="0" y="0">M3</tspan></text>
      <text class="cls-10" transform="translate(847.38 124.88)"><tspan x="0" y="0">3</tspan></text>
      <text class="cls-9" transform="translate(854.83 124.88)"><tspan x="0" y="0">1</tspan></text>
    </g>
    <g id="text152" class="cls-7">
      <text class="cls-6" transform="translate(953.31 214.41)"><tspan x="0" y="0">M3S4</tspan></text>
    </g>
    <g id="text153" class="cls-7">
      <text class="cls-6" transform="translate(555.97 815.05)"><tspan x="0" y="0">M3S3</tspan></text>
    </g>
    <g id="text154" class="cls-7">
      <text class="cls-6" transform="translate(91.39 1615.96)"><tspan x="0" y="0">M3S1</tspan></text>
    </g>
    <g id="text155" class="cls-7">
      <text class="cls-6" transform="translate(551.94 1600.4)"><tspan x="0" y="0">M3S2</tspan></text>
    </g>
    <g id="text156" class="cls-7">
      <text class="cls-9" transform="translate(416.19 1623.08)"><tspan x="0" y="0">M3L1</tspan></text>
    </g>
    <g id="text158" class="cls-7">
      <text class="cls-9" transform="translate(407.94 767.64)"><tspan x="0" y="0">M3L2</tspan></text>
    </g>
    <g id="text161" class="cls-7">
      <text class="cls-9" transform="translate(552.02 1290.36)"><tspan x="0" y="0">M</tspan></text>
      <text class="cls-10" transform="translate(562.71 1290.36)"><tspan x="0" y="0">3</tspan></text>
      <text class="cls-3" transform="translate(570.17 1290.36)"><tspan x="0" y="0">1</tspan></text>
      <text class="cls-9" transform="translate(577.94 1290.36)"><tspan x="0" y="0">3A</tspan></text>
    </g>
    <g id="text164" class="cls-7">
      <text class="cls-9" transform="translate(412.28 1490.78)"><tspan x="0" y="0">M3</tspan></text>
      <text class="cls-10" transform="translate(430.61 1490.78)"><tspan x="0" y="0">0</tspan></text>
      <text class="cls-9" transform="translate(437.99 1490.78)"><tspan x="0" y="0">7A</tspan></text>
    </g>
  </g>
</svg>