<?xml version="1.0" encoding="UTF-8" standalone="no"?>
<svg
   viewBox="0 0 1654.2 2327.16"
   version="1.1"
   id="svg164"
   sodipodi:docname="gcuMap_v2.svg"
   inkscape:version="1.4.2 (ebf0e940, 2025-05-08)"
   xmlns:inkscape="http://www.inkscape.org/namespaces/inkscape"
   xmlns:sodipodi="http://sodipodi.sourceforge.net/DTD/sodipodi-0.dtd"
   xmlns="http://www.w3.org/2000/svg"
   xmlns:svg="http://www.w3.org/2000/svg">
  <sodipodi:namedview
     id="namedview164"
     pagecolor="#ffffff"
     bordercolor="#000000"
     borderopacity="0.25"
     inkscape:showpageshadow="2"
     inkscape:pageopacity="0.0"
     inkscape:pagecheckerboard="0"
     inkscape:deskcolor="#d1d1d1"
     inkscape:zoom="0.57793376"
     inkscape:cx="769.11928"
     inkscape:cy="486.21489"
     inkscape:window-width="1512"
     inkscape:window-height="831"
     inkscape:window-x="0"
     inkscape:window-y="33"
     inkscape:window-maximized="0"
     inkscape:current-layer="g8" />
  <defs
     id="defs1">
    <style
       id="style1">
      .cls-1 {
        fill: #c58b8b;
      }

      .cls-2 {
        letter-spacing: 0em;
      }

      .cls-3 {
        letter-spacing: .04em;
      }

      .cls-4 {
        letter-spacing: .06em;
      }

      .cls-5 {
        letter-spacing: .06em;
      }

      .cls-6 {
        letter-spacing: .04em;
      }

      .cls-7 {
        letter-spacing: .03em;
      }

      .cls-8, .cls-9, .cls-10 {
        font-family: FranklinGothic-Heavy, 'Franklin Gothic Heavy';
        font-size: 12px;
        font-weight: 800;
      }

      .cls-11 {
        letter-spacing: .03em;
      }

      .cls-12 {
        fill: #5f8f85;
      }

      .cls-13, .cls-9 {
        letter-spacing: .05em;
      }

      .cls-14 {
        letter-spacing: .05em;
      }

      .cls-15 {
        fill: #264a45;
      }

      .cls-16 {
        letter-spacing: .03em;
      }

      .cls-17 {
        letter-spacing: .04em;
      }

      .cls-18 {
        letter-spacing: .03em;
      }

      .cls-19 {
        letter-spacing: .06em;
      }

      .cls-20 {
        letter-spacing: .06em;
      }

      .cls-21 {
        fill: #eaf6f1;
      }

      .cls-10, .cls-22 {
        letter-spacing: .05em;
      }

      .cls-23 {
        letter-spacing: .03em;
      }

      .cls-24 {
        letter-spacing: .03em;
      }

      .cls-25 {
        letter-spacing: .05em;
      }

      .cls-26 {
        letter-spacing: .06em;
      }
    </style>
  </defs>
  <g
     id="Laag_2"
     data-name="Laag 2">
    <path
       class="cls-12"
       d="M1064.39,88.97l-460.4,606.79,53.19,47.49-51.66,82.72,10.72,816.51-352.34,1.53,18.38,257.36h629.62l7.66-989.62,454.98-623.49-310.16-199.3ZM1081.74,264.63c-1.29,0-1.29-2,0-2s1.29,2,0,2Z"
       id="hallway-path" />
    <g
       id="g5">
      <polygon
         class="cls-21"
         points="908.94 368.82 855.07 443.72 957.07 517.27 1011.28 442.61 908.94 368.82"
         id="polygon1" />
      <polygon
         class="cls-21"
         points="874.21 631.41 955.31 519.7 853.32 446.15 772.7 558.22 874.21 631.41"
         id="polygon2" />
      <polygon
         class="cls-21"
         points="1139.1 266.55 1172.93 219.95 1076.42 149.48 1042.23 196.7 1139.1 266.55"
         id="M331-polygon" />
      <path
         class="cls-21"
         d="M715.24,752.85c1.96,1.34,4.38,3.04,6.67,4.67l10.73-13.62,24.84,17.69,16.17-21.1,14.14,9.97,84.66-116.61-101.5-73.19-108.65,151.04,53.36,40.6-.42.56Z"
         id="path3" />
      <path
         class="cls-21"
         d="M774.27,744.6l-16.18,21.11-24.87-17.71-10.72,13.62-1.16-.83c-2.74-1.94-5.69-4.02-7.89-5.52l-25.37,34.3,46.47,34.21,51.47-70.9-11.75-8.28Z"
         id="path4" />
      <polygon
         class="cls-21"
         points="977.49 273.53 910.7 366.39 1013.04 440.18 1080.24 347.62 977.49 273.53"
         id="M328-polygon"
         inkscape:label="M328-polygon" />
      <path
         class="cls-21"
         d="M1038.21,197.5l-4.18-2.58-54.8,76.17,102.76,74.1,55.34-76.22-99.12-71.47ZM1081.74,263.63c-1.29,0-1.29-2,0-2s1.29,2,0,2Z"
         id="M330-path" />
    </g>
    <rect
       class="cls-21"
       x="777.27"
       y="1725.05"
       width="96.02"
       height="128.17"
       id="rect5" />
    <g
       id="g8">
      <path
         class="cls-21"
         d="M1115.57,412.59l.79.61-3.4,12.56,73.96,53.64,82.79-114.14-103.15-73.53-75.23,102.55c2.8,1.91,10.91,8.03,24.24,18.31Z"
         id="M329-path" />
      <polygon
         class="cls-21"
         points="929.95 673.53 928.23 679.02 898.32 657.36 876.03 687.74 981.45 762.71 1007.36 727 929.95 673.53"
         id="polygon6" />
      <polygon
         class="cls-21"
         points="846.61 727.84 788.93 806.46 894.91 882.03 951.38 804.17 846.61 727.84"
         id="polygon7" />
      <polygon
         class="cls-21"
         points="953.14 801.74 979.69 765.14 874.26 690.16 848.39 725.42 953.14 801.74"
         id="polygon8" />
      <path
         class="cls-21"
         d="M1185.17,481.84l-75.64-54.86,3.41-12.63c-8.28-6.38-20.74-15.9-23.36-17.68l-20.01,27.27,103.27,74.9-1.76,2.43-103.28-74.91-81.48,111.05,103.89,75.35-1.76,2.43-103.9-75.36-84.45,115.11,26.52,19.2,1.69-5.4,80.82,55.82,177.19-244.3-1.14,1.57Z"
         id="path8" />
    </g>
    <g
       id="g18">
      <polygon
         class="cls-21"
         points="714.67 1547.06 714.67 1524.59 743.76 1524.59 743.76 1502.57 649.8 1502.57 649.89 1547.06 714.67 1547.06"
         id="polygon9" />
      <polygon
         class="cls-21"
         points="743.76 1456.61 649.7 1456.61 649.79 1499.57 743.76 1499.57 743.76 1456.61"
         id="polygon10" />
      <polygon
         class="cls-21"
         points="648.88 1078.81 743.76 1078.81 743.76 1010.83 648.73 1010.83 648.88 1078.81"
         id="polygon11" />
      <path
         class="cls-21"
         d="M649.49,1360.23c17.43-.04,54.54-.34,94.27-.7v-42.82h-94.36l.09,43.52Z"
         id="path11" />
      <polygon
         class="cls-21"
         points="648.98 1125.79 743.76 1125.79 743.76 1081.81 648.89 1081.81 648.98 1125.79"
         id="polygon12" />
      <polygon
         class="cls-21"
         points="649.69 1453.61 743.76 1453.61 743.76 1410.14 649.6 1410.14 649.69 1453.61"
         id="polygon13" />
      <polygon
         class="cls-21"
         points="743.76 1007.83 743.76 936.73 648.57 936.73 648.73 1007.83 743.76 1007.83"
         id="polygon14" />
      <polygon
         class="cls-21"
         points="648.99 1128.79 649.09 1173.28 743.76 1173.28 743.76 1128.79 648.99 1128.79"
         id="polygon15" />
      <polygon
         class="cls-21"
         points="743.76 1527.59 717.67 1527.59 717.67 1550.06 649.9 1550.06 650 1594.55 743.76 1594.55 743.76 1527.59"
         id="polygon16" />
      <polygon
         class="cls-21"
         points="650 1597.55 650.11 1645.24 743.76 1645.24 743.76 1597.55 650 1597.55"
         id="polygon17" />
      <path
         class="cls-21"
         d="M649.59,1407.14h94.17v-44.61c-39.64.36-76.68.66-94.26.7l.09,43.92Z"
         id="path17" />
      <polygon
         class="cls-21"
         points="649.39 1313.7 743.76 1313.7 743.76 1176.28 649.09 1176.28 649.39 1313.7"
         id="polygon18" />
    </g>
    <g
       id="g22">
      <rect
         class="cls-21"
         x="519.5"
         y="1787.27"
         width="44.57"
         height="73.02"
         id="rect18" />
      <rect
         class="cls-21"
         x="471.92"
         y="1787.27"
         width="44.57"
         height="73.02"
         id="rect19" />
      <rect
         class="cls-21"
         x="425.92"
         y="1787.27"
         width="43"
         height="73.02"
         id="rect20" />
      <polygon
         class="cls-21"
         points="658.3 1860.29 775.77 1860.29 775.77 1747.44 658.8 1747.44 658.8 1787.27 658.3 1787.27 658.3 1860.29"
         id="polygon20" />
      <path
         class="cls-21"
         d="M372.75,1761.5l-1.43-33.46h-42.89v33.47c10.11.06,26.55.04,44.33,0Z"
         id="path20" />
      <path
         class="cls-21"
         d="M422.92,1787.27h-16.88s1.21-13.64,1.07-19.9c-26.25.13-44.83.18-57.99.18-9.38,0-15.99-.03-20.69-.07v92.8h94.5v-73.02Z"
         id="path21" />
      <rect
         class="cls-21"
         x="567.07"
         y="1787.27"
         width="44.66"
         height="73.02"
         id="rect21" />
      <rect
         class="cls-21"
         x="614.73"
         y="1787.27"
         width="40.57"
         height="73.02"
         id="rect22" />
    </g>
    <polygon
       class="cls-21"
       points="653.53 889.03 653.53 931.25 748.71 931.25 748.71 896.18 728.72 896.52 728.38 890.73 653.53 889.03"
       id="polygon22" />
    <polygon
       class="cls-15"
       points="328.42 1680.54 421.91 1680.54 421.91 1704.69 427.44 1704.69 427.44 1745.54 407.53 1745.54 407.02 1722.42 328.42 1722.42 328.42 1680.54"
       id="polygon23" />
    <polygon
       class="cls-15"
       points="782.21 1648.01 782.21 1670.31 793.23 1670.31 793.23 1720.01 868.12 1720.01 868.12 1648.52 782.21 1648.01"
       id="polygon24" />
    <polygon
       class="cls-15"
       points="827.4 838.31 886.29 879.84 868.25 934.31 796.42 934.31 796.42 879.5 827.4 838.31"
       id="polygon25" />
    <polygon
       class="cls-15"
       points="1172.93 287.25 1208.07 240.39 1298.46 306.14 1263.83 351.07 1172.93 287.25"
       id="M3S4-polygon" />
    <polygon
       class="cls-1"
       points="689.27 795.42 734.46 827.59 714.04 852.35 713.53 886.31 657.87 886.31 657.87 840.86 689.27 795.42"
       id="polygon27" />
    <rect
       class="cls-1"
       x="659.74"
       y="1688.52"
       width="77.96"
       height="33.89"
       id="rect27" />
    <g
       id="g35">
      <polygon
         class="cls-21"
         points="880.28 1550.83 813.3 1550.83 813.3 1528.36 787.04 1528.36 787.04 1595.32 880.38 1595.32 880.28 1550.83"
         id="polygon28" />
      <polygon
         class="cls-21"
         points="835.26 1434.4 835.26 1467.09 787.04 1467.09 787.04 1500.34 880.17 1500.34 880.03 1434.4 835.26 1434.4"
         id="polygon29" />
      <path
         class="cls-21"
         d="M787.04,1387.05v77.03h45.22v-32.68h47.76l-.1-44.44c-17.79.08-45.61.18-67.27.18-10.69,0-19.87-.03-25.61-.09Z"
         id="path29" />
      <path
         class="cls-21"
         d="M787.04,1359.98c37.66-.36,73.4-.73,92.83-.93l-.3-137.07h-92.53v138Z"
         id="path30" />
      <polygon
         class="cls-21"
         points="787.04 1055.06 879.21 1055.06 879.11 1009.55 787.04 1009.55 787.04 1055.06"
         id="polygon30" />
      <polygon
         class="cls-21"
         points="787.04 1503.34 787.04 1525.36 816.3 1525.36 816.3 1547.83 880.27 1547.83 880.18 1503.34 787.04 1503.34"
         id="polygon31" />
      <path
         class="cls-21"
         d="M787.04,1384.07c16.48.16,64.51.01,92.88-.11l-.05-21.91c-19.55.2-55.24.57-92.83.93v21.09Z"
         id="path31" />
      <polygon
         class="cls-21"
         points="879.1 1006.55 878.95 937.5 787.04 937.5 787.04 1006.55 879.1 1006.55"
         id="polygon32" />
      <polygon
         class="cls-21"
         points="832.23 1598.32 832.23 1613.84 787.04 1613.84 787.04 1646.01 880.48 1646.01 880.38 1598.32 832.23 1598.32"
         id="polygon33" />
      <polygon
         class="cls-21"
         points="787.04 1058.06 787.04 1172 879.46 1172 879.21 1058.06 787.04 1058.06"
         id="polygon34" />
      <polygon
         class="cls-21"
         points="787.04 1218.98 879.56 1218.98 879.47 1175 787.04 1175 787.04 1218.98"
         id="polygon35" />
    </g>
    <g
       id="g37">
      <rect
         class="cls-21"
         x="519.5"
         y="1680.54"
         width="66.9"
         height="83.74"
         id="rect35" />
      <polygon
         class="cls-21"
         points="516.5 1764.29 516.5 1680.54 424.42 1680.54 424.42 1701.48 431.57 1701.48 431.57 1764.29 516.5 1764.29"
         id="polygon36" />
      <polygon
         class="cls-21"
         points="592.4 1680.54 592.4 1764.29 632.08 1764.29 632.25 1724.97 653.53 1724.97 653.53 1680.54 592.4 1680.54"
         id="polygon37" />
    </g>
  </g>
  <g
     id="Laag_3"
     data-name="Laag 3">
    <text
       class="cls-9"
       id="text37"
       x="1160.0197"
       y="394.32312"
       style="fill:#264a45;fill-opacity:1"><tspan
         x="1160.0197"
         y="394.32312"
         id="tspan37"
         style="fill:#264a45;fill-opacity:1">M329</tspan></text>
    <text
       class="cls-8"
       transform="rotate(36.05)"
       id="text40"
       x="1168.6924"
       y="-291.11728"
       style="fill:#264a45;fill-opacity:1"><tspan
         class="cls-13"
         x="1168.6924"
         y="-291.11728"
         id="tspan38"
         style="fill:#264a45;fill-opacity:1">M3</tspan><tspan
         class="cls-18"
         x="1187.0223"
         y="-291.11728"
         id="tspan39"
         style="fill:#264a45;fill-opacity:1">2</tspan><tspan
         class="cls-25"
         x="1194.4424"
         y="-291.11728"
         id="tspan40"
         style="fill:#264a45;fill-opacity:1">7B</tspan></text>
    <text
       class="cls-8"
       id="text43"
       x="1057.9498"
       y="528.46674"
       style="fill:#264a45;fill-opacity:1"><tspan
         class="cls-13"
         x="1057.9498"
         y="528.46674"
         id="tspan41"
         style="fill:#264a45;fill-opacity:1">M3</tspan><tspan
         class="cls-18"
         x="1076.2798"
         y="528.46674"
         id="tspan42"
         style="fill:#264a45;fill-opacity:1">2</tspan><tspan
         class="cls-25"
         x="1083.6998"
         y="528.46674"
         id="tspan43"
         style="fill:#264a45;fill-opacity:1">7A</tspan></text>
    <text
       class="cls-9"
       id="text44"
       x="820.38519"
       y="1633.7727"
       style="fill:#264a45;fill-opacity:1"><tspan
         x="820.38519"
         y="1633.7727"
         id="tspan44"
         style="fill:#264a45;fill-opacity:1">M305</tspan></text>
    <text
       class="cls-10"
       id="text45"
       x="817.25836"
       y="1578.7825"
       style="fill:#264a45;fill-opacity:1"><tspan
         x="817.25836"
         y="1578.7825"
         id="tspan45"
         style="fill:#264a45;fill-opacity:1">M306</tspan></text>
    <text
       class="cls-10"
       id="text46"
       x="832.87933"
       y="1533.4426"
       style="fill:#264a45;fill-opacity:1"><tspan
         x="832.87933"
         y="1533.4426"
         id="tspan46"
         style="fill:#264a45;fill-opacity:1">M308</tspan></text>
    <text
       class="cls-8"
       id="text50"
       x="823.13202"
       y="1488.1027"
       style="fill:#264a45;fill-opacity:1"><tspan
         class="cls-13"
         x="823.13202"
         y="1488.1027"
         id="tspan47"
         style="fill:#264a45;fill-opacity:1">M</tspan><tspan
         class="cls-11"
         x="833.82202"
         y="1488.1027"
         id="tspan48"
         style="fill:#264a45;fill-opacity:1">3</tspan><tspan
         class="cls-17"
         x="841.28204"
         y="1488.1027"
         id="tspan49"
         style="fill:#264a45;fill-opacity:1">1</tspan><tspan
         class="cls-25"
         x="848.82202"
         y="1488.1027"
         id="tspan50"
         style="fill:#264a45;fill-opacity:1">1</tspan></text>
    <text
       class="cls-8"
       id="text53"
       x="684.60193"
       y="1628.2025"
       style="fill:#264a45;fill-opacity:1"><tspan
         class="cls-22"
         x="684.60193"
         y="1628.2025"
         id="tspan51"
         style="fill:#264a45;fill-opacity:1">M3</tspan><tspan
         class="cls-24"
         x="702.93188"
         y="1628.2025"
         id="tspan52"
         style="fill:#264a45;fill-opacity:1">0</tspan><tspan
         class="cls-22"
         x="710.31189"
         y="1628.2025"
         id="tspan53"
         style="fill:#264a45;fill-opacity:1">7</tspan></text>
    <text
       class="cls-10"
       id="text54"
       x="668.94598"
       y="1526.9257"
       style="fill:#264a45;fill-opacity:1"><tspan
         x="668.94598"
         y="1526.9257"
         id="tspan54"
         style="fill:#264a45;fill-opacity:1">M309</tspan></text>
    <text
       class="cls-8"
       id="text58"
       x="681.88177"
       y="1485.476"
       style="fill:#264a45;fill-opacity:1"><tspan
         class="cls-22"
         x="681.88177"
         y="1485.476"
         id="tspan55"
         style="fill:#264a45;fill-opacity:1">M</tspan><tspan
         class="cls-7"
         x="692.57178"
         y="1485.476"
         id="tspan56"
         style="fill:#264a45;fill-opacity:1">3</tspan><tspan
         class="cls-3"
         x="700.0318"
         y="1485.476"
         id="tspan57"
         style="fill:#264a45;fill-opacity:1">1</tspan><tspan
         class="cls-22"
         x="707.58179"
         y="1485.476"
         id="tspan58"
         style="fill:#264a45;fill-opacity:1">0</tspan></text>
    <text
       class="cls-8"
       id="text62"
       x="679.98169"
       y="1438.9926"
       style="fill:#264a45;fill-opacity:1"><tspan
         class="cls-22"
         x="679.98169"
         y="1438.9926"
         id="tspan59"
         style="fill:#264a45;fill-opacity:1">M</tspan><tspan
         class="cls-7"
         x="690.67169"
         y="1438.9926"
         id="tspan60"
         style="fill:#264a45;fill-opacity:1">3</tspan><tspan
         class="cls-20"
         x="698.13165"
         y="1438.9926"
         id="tspan61"
         style="fill:#264a45;fill-opacity:1">1</tspan><tspan
         class="cls-22"
         x="705.86169"
         y="1438.9926"
         id="tspan62"
         style="fill:#264a45;fill-opacity:1">2</tspan></text>
    <text
       class="cls-8"
       id="text66"
       x="812.67157"
       y="1415.6692"
       style="fill:#264a45;fill-opacity:1"><tspan
         class="cls-22"
         x="812.67157"
         y="1415.6692"
         id="tspan63"
         style="fill:#264a45;fill-opacity:1">M</tspan><tspan
         class="cls-7"
         x="823.36157"
         y="1415.6692"
         id="tspan64"
         style="fill:#264a45;fill-opacity:1">3</tspan><tspan
         class="cls-19"
         x="830.82153"
         y="1415.6692"
         id="tspan65"
         style="fill:#264a45;fill-opacity:1">1</tspan><tspan
         class="cls-25"
         x="838.59155"
         y="1415.6692"
         id="tspan66"
         style="fill:#264a45;fill-opacity:1">3</tspan></text>
    <text
       class="cls-8"
       id="text70"
       x="679.20166"
       y="1393.2393"
       style="fill:#264a45;fill-opacity:1"><tspan
         class="cls-22"
         x="679.20166"
         y="1393.2393"
         id="tspan67"
         style="fill:#264a45;fill-opacity:1">M</tspan><tspan
         class="cls-7"
         x="689.89166"
         y="1393.2393"
         id="tspan68"
         style="fill:#264a45;fill-opacity:1">3</tspan><tspan
         class="cls-5"
         x="697.35168"
         y="1393.2393"
         id="tspan69"
         style="fill:#264a45;fill-opacity:1">1</tspan><tspan
         class="cls-22"
         x="705.10168"
         y="1393.2393"
         id="tspan70"
         style="fill:#264a45;fill-opacity:1">4</tspan></text>
    <text
       class="cls-8"
       id="text74"
       x="678.60828"
       y="1344.6459"
       style="fill:#264a45;fill-opacity:1"><tspan
         class="cls-22"
         x="678.60828"
         y="1344.6459"
         id="tspan71"
         style="fill:#264a45;fill-opacity:1">M</tspan><tspan
         class="cls-7"
         x="689.29828"
         y="1344.6459"
         id="tspan72"
         style="fill:#264a45;fill-opacity:1">3</tspan><tspan
         class="cls-26"
         x="696.75824"
         y="1344.6459"
         id="tspan73"
         style="fill:#264a45;fill-opacity:1">1</tspan><tspan
         class="cls-22"
         x="704.46826"
         y="1344.6459"
         id="tspan74"
         style="fill:#264a45;fill-opacity:1">5</tspan></text>
    <text
       class="cls-8"
       id="text78"
       x="816.7951"
       y="1292.0465"
       style="fill:#264a45;fill-opacity:1"><tspan
         class="cls-22"
         x="816.7951"
         y="1292.0465"
         id="tspan75"
         style="fill:#264a45;fill-opacity:1">M</tspan><tspan
         class="cls-7"
         x="827.48511"
         y="1292.0465"
         id="tspan76"
         style="fill:#264a45;fill-opacity:1">3</tspan><tspan
         class="cls-6"
         x="834.94507"
         y="1292.0465"
         id="tspan77"
         style="fill:#264a45;fill-opacity:1">1</tspan><tspan
         class="cls-13"
         x="842.50507"
         y="1292.0465"
         id="tspan78"
         style="fill:#264a45;fill-opacity:1">6</tspan></text>
    <text
       class="cls-8"
       id="text82"
       x="679.02496"
       y="1252.5334"
       style="fill:#264a45;fill-opacity:1"><tspan
         class="cls-22"
         x="679.02496"
         y="1252.5334"
         id="tspan79"
         style="fill:#264a45;fill-opacity:1">M</tspan><tspan
         class="cls-7"
         x="689.71497"
         y="1252.5334"
         id="tspan80"
         style="fill:#264a45;fill-opacity:1">3</tspan><tspan
         class="cls-2"
         x="697.17499"
         y="1252.5334"
         id="tspan81"
         style="fill:#264a45;fill-opacity:1">1</tspan><tspan
         class="cls-22"
         x="704.245"
         y="1252.5334"
         id="tspan82"
         style="fill:#264a45;fill-opacity:1">7</tspan></text>
    <text
       class="cls-8"
       id="text86"
       x="816.83508"
       y="1205.9828"
       style="fill:#264a45;fill-opacity:1"><tspan
         class="cls-22"
         x="816.83508"
         y="1205.9828"
         id="tspan83"
         style="fill:#264a45;fill-opacity:1">M</tspan><tspan
         class="cls-7"
         x="827.52509"
         y="1205.9828"
         id="tspan84"
         style="fill:#264a45;fill-opacity:1">3</tspan><tspan
         class="cls-4"
         x="834.98511"
         y="1205.9828"
         id="tspan85"
         style="fill:#264a45;fill-opacity:1">1</tspan><tspan
         class="cls-25"
         x="842.76508"
         y="1205.9828"
         id="tspan86"
         style="fill:#264a45;fill-opacity:1">8</tspan></text>
    <text
       class="cls-8"
       id="text89"
       x="817.3551"
       y="1117.2805"
       style="fill:#264a45;fill-opacity:1"><tspan
         class="cls-25"
         x="817.3551"
         y="1117.2805"
         id="tspan87"
         style="fill:#264a45;fill-opacity:1">M</tspan><tspan
         class="cls-16"
         x="828.0451"
         y="1117.2805"
         id="tspan88"
         style="fill:#264a45;fill-opacity:1">3</tspan><tspan
         class="cls-25"
         x="835.50513"
         y="1117.2805"
         id="tspan89"
         style="fill:#264a45;fill-opacity:1">19</tspan></text>
    <text
       class="cls-10"
       id="text90"
       x="672.23181"
       y="1157.6659"
       style="fill:#264a45;fill-opacity:1"><tspan
         x="672.23181"
         y="1157.6659"
         id="tspan90"
         style="fill:#264a45;fill-opacity:1">M320A</tspan></text>
    <text
       class="cls-10"
       id="text91"
       x="673.48474"
       y="1109.7393"
       style="fill:#264a45;fill-opacity:1"><tspan
         x="673.48474"
         y="1109.7393"
         id="tspan91"
         style="fill:#264a45;fill-opacity:1">M320</tspan></text>
    <text
       class="cls-10"
       id="text92"
       x="671.80505"
       y="1052.3186"
       style="fill:#264a45;fill-opacity:1"><tspan
         x="671.80505"
         y="1052.3186"
         id="tspan92"
         style="fill:#264a45;fill-opacity:1">M320B</tspan></text>
    <text
       class="cls-10"
       id="text93"
       x="672.68506"
       y="982.46204"
       style="fill:#264a45;fill-opacity:1"><tspan
         x="672.68506"
         y="982.46204"
         id="tspan93"
         style="fill:#264a45;fill-opacity:1">M320C</tspan></text>
    <text
       class="cls-10"
       id="text94"
       x="678.42181"
       y="916.33929"
       style="fill:#264a45;fill-opacity:1"><tspan
         x="678.42181"
         y="916.33929"
         id="tspan94"
         style="fill:#264a45;fill-opacity:1">M3T1</tspan></text>
    <text
       class="cls-8"
       id="text97"
       x="810.79523"
       y="981.93219"
       style="fill:#264a45;fill-opacity:1"><tspan
         class="cls-22"
         x="810.79523"
         y="981.93219"
         id="tspan95"
         style="fill:#264a45;fill-opacity:1">M3</tspan><tspan
         class="cls-16"
         x="829.12518"
         y="981.93219"
         id="tspan96"
         style="fill:#264a45;fill-opacity:1">2</tspan><tspan
         class="cls-22"
         x="836.5752"
         y="981.93219"
         id="tspan97"
         style="fill:#264a45;fill-opacity:1">1A</tspan></text>
    <text
       class="cls-8"
       id="text100"
       x="817.39191"
       y="1041.3461"
       style="fill:#264a45;fill-opacity:1"><tspan
         class="cls-22"
         x="817.39191"
         y="1041.3461"
         id="tspan98"
         style="fill:#264a45;fill-opacity:1">M3</tspan><tspan
         class="cls-16"
         x="835.72192"
         y="1041.3461"
         id="tspan99"
         style="fill:#264a45;fill-opacity:1">2</tspan><tspan
         class="cls-13"
         x="843.17194"
         y="1041.3461"
         id="tspan100"
         style="fill:#264a45;fill-opacity:1">1</tspan></text>
    <text
       class="cls-10"
       id="text101"
       x="706.65002"
       y="789.55603"
       style="fill:#264a45;fill-opacity:1"><tspan
         x="706.65002"
         y="789.55603"
         id="tspan101"
         style="fill:#264a45;fill-opacity:1">M323A</tspan></text>
    <text
       class="cls-10"
       id="text102"
       x="754.81952"
       y="664.33618"
       style="fill:#264a45;fill-opacity:1"><tspan
         x="754.81952"
         y="664.33618"
         id="tspan102"
         style="fill:#264a45;fill-opacity:1">M323</tspan></text>
    <text
       class="cls-8"
       id="text105"
       x="843.69989"
       y="545.60321"
       style="fill:#264a45;fill-opacity:1"><tspan
         class="cls-13"
         x="843.69989"
         y="545.60321"
         id="tspan103"
         style="fill:#264a45;fill-opacity:1">M</tspan><tspan
         class="cls-23"
         x="854.38989"
         y="545.60321"
         id="tspan104"
         style="fill:#264a45;fill-opacity:1">3</tspan><tspan
         class="cls-13"
         x="861.80988"
         y="545.60321"
         id="tspan105"
         style="fill:#264a45;fill-opacity:1">75C</tspan></text>
    <text
       class="cls-9"
       id="text106"
       x="914.09552"
       y="451.53076"
       style="fill:#264a45;fill-opacity:1"><tspan
         x="914.09552"
         y="451.53076"
         id="tspan106"
         style="fill:#264a45;fill-opacity:1">M326</tspan></text>
    <text
       class="cls-9"
       id="text107"
       x="978.79932"
       y="365.017"
       style="fill:#264a45;fill-opacity:1"><tspan
         x="978.79932"
         y="365.017"
         id="tspan107"
         style="fill:#264a45;fill-opacity:1">M328</tspan></text>
    <text
       class="cls-9"
       id="text108"
       x="1042.2656"
       y="279.05075"
       style="fill:#264a45;fill-opacity:1"><tspan
         x="1042.2656"
         y="279.05075"
         id="tspan108"
         style="fill:#264a45;fill-opacity:1">M330</tspan></text>
    <text
       class="cls-9"
       id="text109"
       x="982.57635"
       y="638.12299"
       style="fill:#264a45;fill-opacity:1"><tspan
         x="982.57635"
         y="638.12299"
         id="tspan109"
         style="fill:#264a45;fill-opacity:1">M325</tspan></text>
    <text
       class="cls-8"
       id="text112"
       x="922.06488"
       y="714.44861"
       style="fill:#264a45;fill-opacity:1"><tspan
         class="cls-13"
         x="922.06488"
         y="714.44861"
         id="tspan110"
         style="fill:#264a45;fill-opacity:1">M3</tspan><tspan
         class="cls-14"
         x="940.3949"
         y="714.44861"
         id="tspan111"
         style="fill:#264a45;fill-opacity:1">2</tspan><tspan
         class="cls-25"
         x="947.97485"
         y="714.44861"
         id="tspan112"
         style="fill:#264a45;fill-opacity:1">4A</tspan></text>
    <text
       class="cls-8"
       id="text115"
       x="898.47485"
       y="754.08838"
       style="fill:#264a45;fill-opacity:1"><tspan
         class="cls-13"
         x="898.47485"
         y="754.08838"
         id="tspan113"
         style="fill:#264a45;fill-opacity:1">M3</tspan><tspan
         class="cls-14"
         x="916.80487"
         y="754.08838"
         id="tspan114"
         style="fill:#264a45;fill-opacity:1">2</tspan><tspan
         class="cls-25"
         x="924.38483"
         y="754.08838"
         id="tspan115"
         style="fill:#264a45;fill-opacity:1">4</tspan></text>
    <text
       class="cls-9"
       id="text116"
       x="847.36182"
       y="810.14722"
       style="fill:#264a45;fill-opacity:1"><tspan
         x="847.36182"
         y="810.14722"
         id="tspan116"
         style="fill:#264a45;fill-opacity:1">M322</tspan></text>
    <text
       class="cls-10"
       id="text117"
       x="808.21924"
       y="1797.1006"
       style="fill:#264a45;fill-opacity:1"><tspan
         x="808.21924"
         y="1797.1006"
         id="tspan117"
         style="fill:#264a45;fill-opacity:1">M303</tspan></text>
    <text
       class="cls-10"
       id="text118"
       x="697.87592"
       y="1809.0162"
       style="fill:#264a45;fill-opacity:1"><tspan
         x="697.87592"
         y="1809.0162"
         id="tspan118"
         style="fill:#264a45;fill-opacity:1">M302</tspan></text>
    <text
       class="cls-8"
       id="text124"
       x="567.16669"
       y="1825.6859"
       style="fill:#264a45;fill-opacity:1"><tspan
         class="cls-22"
         x="567.16669"
         y="1825.6859"
         id="tspan122"
         style="fill:#264a45;fill-opacity:1">M3</tspan><tspan
         class="cls-24"
         x="585.49664"
         y="1825.6859"
         id="tspan123"
         style="fill:#264a45;fill-opacity:1">0</tspan><tspan
         class="cls-22"
         x="592.87665"
         y="1825.6859"
         id="tspan124"
         style="fill:#264a45;fill-opacity:1">1B</tspan></text>
    <text
       class="cls-8"
       id="text124-9"
       x="643.08618"
       y="1745.5833"
       style="font-weight:800;font-size:11.4706px;font-family:FranklinGothic-Heavy, 'Franklin Gothic Heavy';stroke-width:0.955919;fill:#264a45;fill-opacity:1"
       transform="scale(0.95591776,1.0461151)"><tspan
         class="cls-22"
         x="643.08618"
         y="1745.5833"
         id="tspan122-7"
         style="stroke-width:0.955919;fill:#264a45;fill-opacity:1">M3</tspan><tspan
         class="cls-24"
         x="660.60834"
         y="1745.5833"
         id="tspan123-0"
         style="stroke-width:0.955919;fill:#264a45;fill-opacity:1">0</tspan><tspan
         class="cls-22"
         x="667.6629"
         y="1745.5833"
         id="tspan124-3"
         style="stroke-width:0.955919;fill:#264a45;fill-opacity:1">1A</tspan></text>
    <text
       class="cls-8"
       id="text127"
       x="519.97736"
       y="1825.1245"
       style="fill:#264a45;fill-opacity:1"><tspan
         class="cls-22"
         x="519.97736"
         y="1825.1245"
         id="tspan125"
         style="fill:#264a45;fill-opacity:1">M3</tspan><tspan
         class="cls-24"
         x="538.30731"
         y="1825.1245"
         id="tspan126"
         style="fill:#264a45;fill-opacity:1">0</tspan><tspan
         class="cls-22"
         x="545.68732"
         y="1825.1245"
         id="tspan127"
         style="fill:#264a45;fill-opacity:1">1C</tspan></text>
    <text
       class="cls-8"
       id="text130"
       x="472.02527"
       y="1825.1593"
       style="fill:#264a45;fill-opacity:1"><tspan
         class="cls-22"
         x="472.02527"
         y="1825.1593"
         id="tspan128"
         style="fill:#264a45;fill-opacity:1">M3</tspan><tspan
         class="cls-24"
         x="490.35526"
         y="1825.1593"
         id="tspan129"
         style="fill:#264a45;fill-opacity:1">0</tspan><tspan
         class="cls-22"
         x="497.73526"
         y="1825.1593"
         id="tspan130"
         style="fill:#264a45;fill-opacity:1">1D</tspan></text>
    <text
       class="cls-8"
       id="text133"
       x="425.99265"
       y="1825.1001"
       style="fill:#264a45;fill-opacity:1"><tspan
         class="cls-22"
         x="425.99265"
         y="1825.1001"
         id="tspan131"
         style="fill:#264a45;fill-opacity:1">M3</tspan><tspan
         class="cls-24"
         x="444.32263"
         y="1825.1001"
         id="tspan132"
         style="fill:#264a45;fill-opacity:1">0</tspan><tspan
         class="cls-22"
         x="451.70264"
         y="1825.1001"
         id="tspan133"
         style="fill:#264a45;fill-opacity:1">1E</tspan></text>
    <text
       class="cls-8"
       id="text136"
       x="352.34314"
       y="1824.7401"
       style="fill:#264a45;fill-opacity:1"><tspan
         class="cls-22"
         x="352.34314"
         y="1824.7401"
         id="tspan134"
         style="fill:#264a45;fill-opacity:1">M3</tspan><tspan
         class="cls-24"
         x="370.67313"
         y="1824.7401"
         id="tspan135"
         style="fill:#264a45;fill-opacity:1">0</tspan><tspan
         class="cls-22"
         x="378.05313"
         y="1824.7401"
         id="tspan136"
         style="fill:#264a45;fill-opacity:1">1F</tspan></text>
    <text
       class="cls-8"
       id="text139"
       x="328.95352"
       y="1750.8993"
       style="fill:#264a45;fill-opacity:1"><tspan
         class="cls-22"
         x="328.95352"
         y="1750.8993"
         id="tspan137"
         style="fill:#264a45;fill-opacity:1">M3</tspan><tspan
         class="cls-24"
         x="347.28351"
         y="1750.8993"
         id="tspan138"
         style="fill:#264a45;fill-opacity:1">0</tspan><tspan
         class="cls-22"
         x="354.66351"
         y="1750.8993"
         id="tspan139"
         style="fill:#264a45;fill-opacity:1">1F</tspan></text>
    <text
       class="cls-8"
       id="text142"
       x="451.23648"
       y="1725.329"
       style="fill:#264a45;fill-opacity:1"><tspan
         class="cls-22"
         x="451.23648"
         y="1725.329"
         id="tspan140"
         style="fill:#264a45;fill-opacity:1">M3</tspan><tspan
         class="cls-24"
         x="469.56647"
         y="1725.329"
         id="tspan141"
         style="fill:#264a45;fill-opacity:1">0</tspan><tspan
         class="cls-22"
         x="476.94647"
         y="1725.329"
         id="tspan142"
         style="fill:#264a45;fill-opacity:1">1H</tspan></text>
    <text
       class="cls-8"
       id="text145"
       x="531.70508"
       y="1725.988"
       style="fill:#264a45;fill-opacity:1"><tspan
         class="cls-22"
         x="531.70508"
         y="1725.988"
         id="tspan143"
         style="fill:#264a45;fill-opacity:1">M3</tspan><tspan
         class="cls-24"
         x="550.0351"
         y="1725.988"
         id="tspan144"
         style="fill:#264a45;fill-opacity:1">0</tspan><tspan
         class="cls-22"
         x="557.4151"
         y="1725.988"
         id="tspan145"
         style="fill:#264a45;fill-opacity:1">1I</tspan></text>
    <text
       class="cls-8"
       id="text148"
       x="599.4986"
       y="1714.2526"
       style="fill:#264a45;fill-opacity:1"><tspan
         class="cls-22"
         x="599.4986"
         y="1714.2526"
         id="tspan146"
         style="fill:#264a45;fill-opacity:1">M3</tspan><tspan
         class="cls-24"
         x="617.82861"
         y="1714.2526"
         id="tspan147"
         style="fill:#264a45;fill-opacity:1">0</tspan><tspan
         class="cls-22"
         x="625.20862"
         y="1714.2526"
         id="tspan148"
         style="fill:#264a45;fill-opacity:1">1J</tspan></text>
    <text
       class="cls-8"
       id="text151"
       x="1092.952"
       y="213.83803"
       style="fill:#264a45;fill-opacity:1"><tspan
         class="cls-13"
         x="1092.952"
         y="213.83803"
         id="tspan149"
         style="fill:#264a45;fill-opacity:1">M3</tspan><tspan
         class="cls-16"
         x="1111.282"
         y="213.83803"
         id="tspan150"
         style="fill:#264a45;fill-opacity:1">3</tspan><tspan
         class="cls-25"
         x="1118.7321"
         y="213.83803"
         id="tspan151"
         style="fill:#264a45;fill-opacity:1">1</tspan></text>
    <text
       class="cls-9"
       id="text152"
       x="1217.212"
       y="303.3718"
       style="fill:#eaf6f1;fill-opacity:1"><tspan
         x="1217.212"
         y="303.3718"
         id="tspan152"
         style="fill:#eaf6f1;fill-opacity:1">M3S4</tspan></text>
    <text
       class="cls-9"
       id="text153"
       x="819.86591"
       y="904.00519"
       style="fill:#eaf6f1;fill-opacity:1"><tspan
         x="819.86591"
         y="904.00519"
         id="tspan153"
         style="fill:#eaf6f1;fill-opacity:1">M3S3</tspan></text>
    <text
       class="cls-10"
       id="text154"
       x="355.28564"
       y="1704.9215"
       style="fill:#eaf6f1;fill-opacity:1"><tspan
         x="355.28564"
         y="1704.9215"
         id="tspan154"
         style="fill:#eaf6f1;fill-opacity:1">M3S1</tspan></text>
    <text
       class="cls-10"
       id="text155"
       x="815.84235"
       y="1689.3551"
       style="fill:#eaf6f1;fill-opacity:1"><tspan
         x="815.84235"
         y="1689.3551"
         id="tspan155"
         style="fill:#eaf6f1;fill-opacity:1">M3S2</tspan></text>
    <text
       class="cls-10"
       id="text156"
       x="680.08911"
       y="1712.0376"
       style="fill:#264a45;fill-opacity:1"><tspan
         x="680.08911"
         y="1712.0376"
         id="tspan156"
         style="fill:#264a45;fill-opacity:1">M3L1</tspan></text>
    <text
       id="text157" />
    <text
       class="cls-10"
       id="text158"
       x="671.83624"
       y="856.59851"
       style="fill:#264a45;fill-opacity:1"><tspan
         x="671.83624"
         y="856.59851"
         id="tspan157"
         style="fill:#264a45;fill-opacity:1">M3L2</tspan></text>
    <text
       class="cls-8"
       id="text161"
       x="815.91882"
       y="1379.3231"
       style="fill:#264a45;fill-opacity:1"
       inkscape:label="text161"><tspan
         class="cls-22"
         x="815.91882"
         y="1379.3231"
         id="tspan158"
         style="fill:#264a45;fill-opacity:1">M</tspan><tspan
         class="cls-7"
         x="826.60883"
         y="1379.3231"
         id="tspan159"
         style="fill:#264a45;fill-opacity:1">3</tspan><tspan
         class="cls-19"
         x="834.06885"
         y="1379.3231"
         id="tspan160"
         style="fill:#264a45;fill-opacity:1">1</tspan><tspan
         class="cls-22"
         x="841.83887"
         y="1379.3231"
         id="tspan161"
         style="fill:#264a45;fill-opacity:1">3A</tspan></text>
    <text
       class="cls-8"
       id="text164"
       x="676.17529"
       y="1579.7393"
       style="fill:#264a45;fill-opacity:1"
       inkscape:label="text164"><tspan
         class="cls-22"
         x="676.17529"
         y="1579.7393"
         id="tspan162"
         style="fill:#264a45;fill-opacity:1">M3</tspan><tspan
         class="cls-24"
         x="694.50531"
         y="1579.7393"
         id="tspan163"
         style="fill:#264a45;fill-opacity:1">0</tspan><tspan
         class="cls-22"
         x="701.88531"
         y="1579.7393"
         id="tspan164"
         style="fill:#264a45;fill-opacity:1">7A</tspan></text>
  </g>
</svg>
